<svg width="478" height="175" viewBox="0 0 478 175" fill="none" xmlns="http://www.w3.org/2000/svg">
<path d="M69.4838 112.204C70.8965 127.836 73.1656 143.41 76.2689 158.964C77.5538 165.411 87.4871 164.556 94.4901 164.947C106.392 165.609 118.309 166.057 130.181 164.645C142.767 163.144 157.321 159.542 165.849 152.615C175.152 145.057 175.107 133.908 165.511 126.47C160.094 122.269 152.79 119.043 145.074 116.765C153.174 113.341 160.439 109.082 166.022 103.589C174.919 94.8267 175.723 83.8445 169.336 74.2435C163.242 65.0751 150.716 58.4295 137.304 55.0154C123.524 51.5076 108.556 51.6431 94.1369 52.5657C84.6619 53.1755 68.3042 52.0861 67.9886 61.6976C67.6129 72.9248 67.7256 84.1624 68.2891 95.3896C68.5822 100.998 68.9804 106.601 69.4838 112.204ZM142.226 140.012C141.249 144.833 133.555 146.626 128.708 147.481C119.451 149.107 110.758 149.107 101.223 148.164C100.261 141.815 99.4342 135.451 98.7354 129.076C107.429 128.529 116.22 128.362 124.132 129.858C129.227 130.823 133.217 132.032 137.545 134.33C139.258 135.237 141.279 136.499 142.008 138.13C142.263 138.709 142.361 139.339 142.226 140.012ZM96.346 69.4273C96.361 68.6194 115.551 68.708 117.362 68.8071C127.957 69.3804 138.311 71.9918 145.216 78.3612C148.996 81.8482 150.777 86.9614 148.545 91.2511C147.583 93.091 146.028 94.7589 144.179 96.2757C139.769 99.893 135.508 101.994 129.445 104.376C119.556 108.259 108.766 110.745 97.7511 111.902C96.6015 97.7664 96.1506 83.589 96.346 69.4273Z" fill="#EEE7E7"/>
<path d="M204.456 174.366C211.203 173.078 213.893 168.591 212.811 164.155C211.121 157.238 209.768 150.285 208.731 143.311C230.679 154.085 254.19 163.217 278.919 170.571C284.855 172.333 291.745 171.796 295.284 167.595C298.229 164.103 296.959 158.015 290.993 156.243C271.66 150.494 253.078 143.655 235.398 135.8C238.9 135.112 242.348 134.315 245.73 133.387C260.014 129.478 273.952 124.302 282.848 115.316C291.114 106.961 292.707 94.9726 284.126 86.4349C276.161 78.5123 263.132 74.4572 250.005 72.1533C232.595 69.0989 214.352 68.265 196.544 69.8078C190.683 70.3134 185.558 72.7527 184.717 76.8965C184.491 77.4855 184.326 78.0953 184.251 78.7208C180.442 108.733 182.485 138.881 189.744 168.575C190.818 172.99 198.678 175.466 204.456 174.366ZM207.266 85.7521C218.319 85.3404 229.357 86.1013 240.162 88.2957C245.94 89.4737 252.537 91.5794 255.671 95.3531C258.999 99.3561 258.488 104.954 253.935 108.67C250.215 111.704 245.309 113.836 240.184 115.785C229.635 119.793 218.199 121.884 206.552 122.097C205.959 109.984 206.214 97.8498 207.266 85.7521Z" fill="#E8E5E5"/>
<path d="M297.838 115.274C298.064 126.251 301.077 137.614 309.087 147.205C316.413 155.966 328.022 163.05 341.892 166.339C354.178 169.253 367.545 168.236 379.206 164.546C404.13 156.665 413.718 138.328 416.423 120.685C419.496 100.649 412.087 79.0231 387.524 66.8524C387.194 66.67 386.848 66.498 386.487 66.3364C373.391 60.4831 356.725 58.7161 341.953 62.4794C327.075 66.2739 314.872 74.0871 307.637 83.8496C300.461 93.5184 297.621 104.464 297.838 115.274ZM392.311 121.868C392.326 121.8 392.326 121.784 392.311 121.868ZM326.895 99.8773C329.57 91.6315 335.446 83.907 344.334 79.7684C357.01 73.8681 371.873 78.8459 378.891 88.5719C385.263 97.4015 386.48 108.639 385.21 118.641C383.174 134.7 374.157 153.809 352.006 151.249C345.942 150.551 340.675 147.731 336.512 144.187C323.709 133.283 322.364 113.836 326.895 99.8773Z" fill="#E8E5E5"/>
<path d="M347.054 150.04C347.46 150.177 347.595 150.193 347.054 150.04V150.04Z" fill="white"/>
<path d="M214.712 50.2827C215.306 40.7234 215.899 31.1589 216.493 21.5997C218.988 24.2319 221.49 26.864 223.984 29.491C225.269 30.8462 226.554 32.1962 227.839 33.5514C227.922 33.64 228.057 33.8016 228.207 33.9996C227.351 35.5425 226.93 37.1166 227.606 38.576C228.808 41.1717 233.084 42.6885 236.615 41.1978C240.305 39.6393 239.718 36.4129 237.953 34.1143C237.833 33.9579 237.697 33.8016 237.577 33.6452C238.351 32.5923 239.132 31.5394 239.951 30.5074C245.993 22.8662 253.281 15.788 261.621 9.30915C262.027 12.8431 262.44 16.377 262.846 19.9109C263.312 23.9608 264.424 28.3026 264.439 32.462C261.644 33.7234 258.826 35.2871 258.383 37.7003C257.97 39.9468 260.404 41.6617 263.613 41.6617C269.226 41.6564 271.307 38.9356 271.961 35.7666C274.418 34.6668 276.83 33.5097 279.264 32.3838C282.961 30.6742 286.673 28.9802 290.392 27.2967C288.995 30.9348 287.605 34.5782 286.207 38.2163C284.982 41.4063 283.765 44.5962 282.54 47.7861C281.608 50.2254 281.135 53.4674 279.129 55.6253C276.95 57.9604 271.254 56.9336 267.835 56.7512C263.515 56.5218 259.195 56.2247 254.897 55.8546C245.79 55.0676 236.758 53.9105 227.809 52.4875C222.767 51.6848 220.611 57.0691 225.668 57.8718C235.601 59.4511 245.639 60.6656 255.761 61.5099C260.923 61.9426 266.107 62.2762 271.299 62.5003C275.455 62.6775 279.715 62.7661 283.141 60.8688C285.997 59.2895 287.334 56.845 288.303 54.4786C289.746 50.9655 291.016 47.416 292.368 43.8873C295.194 36.5119 298.019 29.1314 300.844 21.756C301.716 19.4887 297.951 17.2526 294.931 18.6026C287.214 22.0427 279.655 25.6757 271.961 29.1418C271.961 29.121 271.953 29.0949 271.953 29.074C270.939 20.3122 269.932 11.5504 268.917 2.79382C268.647 0.469152 264.65 -1.00071 262.042 0.818373C254.243 6.28082 247.165 12.2228 240.973 18.6026C237.96 21.7039 235.173 24.9094 232.603 28.1984C230.905 26.494 229.169 24.8156 227.569 23.1216C223.879 19.2333 220.182 15.3397 216.493 11.4514C214.284 9.12672 209.167 10.0441 208.994 12.8587C208.22 25.3316 207.446 37.8098 206.672 50.2827C206.44 53.874 214.487 53.8688 214.712 50.2827Z" fill="#F7E545"/>
<path d="M436.755 89.5154C442.15 86.5392 447.433 83.4691 452.828 80.4929C455.097 79.242 454.714 76.5368 452.828 75.2286C450.581 73.6701 447.515 73.9724 445.238 75.2286C439.843 78.2048 434.561 81.2748 429.166 84.251C426.897 85.5019 427.28 88.2071 429.166 89.5154C431.405 91.0686 434.479 90.7715 436.755 89.5154Z" fill="#E8E5E5"/>
<path d="M446.005 101.379C454.646 100.915 463.287 100.425 471.935 99.9556C478.78 99.5855 478.833 92.1372 471.935 92.5072C463.294 92.9711 454.653 93.4611 446.005 93.9302C439.16 94.3003 439.107 101.754 446.005 101.379Z" fill="#E8E5E5"/>
<path d="M441.286 108.431C435.125 106.288 429.685 112.71 435.869 114.863C441.354 116.77 446.681 118.892 452.174 120.805C458.335 122.947 463.775 116.525 457.591 114.373C452.099 112.46 446.771 110.338 441.286 108.431Z" fill="#E8E5E5"/>
<path d="M39.0827 110.907C33.0866 113.262 27.1732 115.728 21.1771 118.084C15.166 120.445 20.5685 126.882 26.5946 124.516C32.5907 122.16 38.5041 119.694 44.5002 117.338C50.5113 114.972 45.1088 108.535 39.0827 110.907Z" fill="#E8E5E5"/>
<path d="M5.39039 104.386C14.0314 104.86 22.6798 105.309 31.3208 105.788C38.2111 106.169 38.1735 98.7203 31.3208 98.3398C22.6798 97.8654 14.0314 97.4172 5.39039 96.9377C-1.49233 96.5624 -1.45476 104.011 5.39039 104.386Z" fill="#E8E5E5"/>
<path d="M24.3254 84.6367C29.3146 87.1178 34.1009 89.7865 39.0902 92.2675C41.4495 93.4402 45.0637 92.5542 46.4312 90.9332C48.0092 89.0619 46.867 87.0135 44.5077 85.8408C39.5185 83.3597 34.7321 80.691 29.7429 78.21C27.3835 77.0373 23.7693 77.9233 22.4018 79.5444C20.8239 81.4156 21.966 83.464 24.3254 84.6367Z" fill="#E8E5E5"/>
</svg>
